<svg width="56" height="56" viewBox="0 0 56 56" fill="none" xmlns="http://www.w3.org/2000/svg">
<circle cx="28" cy="28" r="28" fill="#2563EB"/>
<mask id="mask0_0_282" style="mask-type:luminance" maskUnits="userSpaceOnUse" x="0" y="0" width="56" height="56">
<circle cx="28" cy="28" r="28" fill="white"/>
</mask>
<g mask="url(#mask0_0_282)">
<g filter="url(#filter0_f_0_282)">
<circle cx="28" cy="28" r="12" fill="#2563EB" fill-opacity="0.8"/>
</g>
</g>
<path d="M41.4327 30.6913L39.9764 22.6641C39.8589 22.0109 39.5158 21.4198 39.0068 20.9939C38.4979 20.568 37.8555 20.3344 37.1919 20.334H34.3259V17.165C34.3259 16.8561 34.2031 16.5597 33.9846 16.3412C33.7661 16.1227 33.4698 16 33.1608 16H22.3259C22.0169 16 21.7205 16.1227 21.5021 16.3412C21.2836 16.5597 21.1608 16.8561 21.1608 17.165V20.334H18.2948C17.6312 20.3344 16.9888 20.568 16.4799 20.9939C15.9709 21.4198 15.6278 22.0109 15.5103 22.6641L14.054 30.6913C13.9675 31.1634 13.9851 31.6488 14.1056 32.1134C14.2261 32.5781 14.4466 33.0108 14.7517 33.3814C15.0569 33.752 15.4392 34.0514 15.8721 34.2589C16.305 34.4664 16.7779 34.5768 17.2579 34.5825H21.1142V38.835C21.1142 39.1439 21.237 39.4403 21.4555 39.6588C21.6739 39.8773 21.9703 40 22.2793 40H33.1142C33.4232 40 33.7195 39.8773 33.938 39.6588C34.1565 39.4403 34.2793 39.1439 34.2793 38.835V34.5825H38.2288C38.7127 34.5836 39.1909 34.4781 39.6295 34.2736C40.0681 34.0691 40.4563 33.7706 40.7666 33.3992C41.0768 33.0278 41.3015 32.5926 41.4247 32.1246C41.5478 31.6566 41.5665 31.1673 41.4793 30.6913H41.4327ZM23.4909 18.3301H31.9958V20.334H23.4909V18.3301ZM31.9958 37.6699H23.4909V29.165H31.9958V37.6699ZM38.9861 31.9029C38.8957 32.0131 38.7819 32.1017 38.6528 32.1621C38.5238 32.2226 38.3829 32.2535 38.2404 32.2524H34.3259V28C34.3259 27.691 34.2031 27.3947 33.9846 27.1762C33.7661 26.9577 33.4698 26.835 33.1608 26.835H22.3259C22.0169 26.835 21.7205 26.9577 21.5021 27.1762C21.2836 27.3947 21.1608 27.691 21.1608 28V32.2524H17.2579C17.1154 32.2535 16.9745 32.2226 16.8455 32.1621C16.7165 32.1017 16.6026 32.0131 16.5123 31.9029C16.4193 31.7956 16.352 31.6684 16.3157 31.5311C16.2793 31.3938 16.2748 31.25 16.3026 31.1107L17.7589 23.0718C17.7825 22.9587 17.8437 22.8568 17.9325 22.7827C18.0214 22.7087 18.1326 22.6669 18.2482 22.6641H37.1919C37.3075 22.6669 37.4187 22.7087 37.5076 22.7827C37.5964 22.8568 37.6576 22.9587 37.6812 23.0718L39.1375 31.1107C39.1652 31.25 39.1608 31.3938 39.1244 31.5311C39.0881 31.6684 39.0208 31.7956 38.9278 31.9029H38.9861Z" fill="white"/>
<path d="M25.5762 32.4157H29.9102C30.2192 32.4157 30.5155 32.2929 30.734 32.0744C30.9525 31.8559 31.0752 31.5596 31.0752 31.2506C31.0752 30.9416 30.9525 30.6453 30.734 30.4268C30.5155 30.2083 30.2192 30.0856 29.9102 30.0856H25.5762C25.2672 30.0856 24.9709 30.2083 24.7524 30.4268C24.5339 30.6453 24.4111 30.9416 24.4111 31.2506C24.4111 31.5596 24.5339 31.8559 24.7524 32.0744C24.9709 32.2929 25.2672 32.4157 25.5762 32.4157Z" fill="white"/>
<path d="M25.5762 35.666H29.9102C30.2192 35.666 30.5155 35.5433 30.734 35.3248C30.9525 35.1063 31.0752 34.81 31.0752 34.501C31.0752 34.192 30.9525 33.8957 30.734 33.6772C30.5155 33.4587 30.2192 33.3359 29.9102 33.3359H25.5762C25.2672 33.3359 24.9709 33.4587 24.7524 33.6772C24.5339 33.8957 24.4111 34.192 24.4111 34.501C24.4111 34.81 24.5339 35.1063 24.7524 35.3248C24.9709 35.5433 25.2672 35.666 25.5762 35.666Z" fill="white"/>
<path d="M35.491 23.7593C35.2444 23.7593 35.0034 23.8324 34.7984 23.9694C34.5934 24.1063 34.4336 24.301 34.3393 24.5288C34.2449 24.7566 34.2202 25.0073 34.2683 25.2491C34.3164 25.4909 34.4352 25.713 34.6095 25.8874C34.7838 26.0617 35.006 26.1804 35.2478 26.2285C35.4896 26.2766 35.7403 26.2519 35.968 26.1576C36.1958 26.0632 36.3905 25.9035 36.5275 25.6985C36.6645 25.4935 36.7376 25.2524 36.7376 25.0059C36.7376 24.6753 36.6063 24.3582 36.3725 24.1244C36.1387 23.8906 35.8216 23.7593 35.491 23.7593Z" fill="white"/>
<defs>
<filter id="filter0_f_0_282" x="-5.74625" y="-5.74625" width="67.4925" height="67.4925" filterUnits="userSpaceOnUse" color-interpolation-filters="sRGB">
<feFlood flood-opacity="0" result="BackgroundImageFix"/>
<feBlend mode="normal" in="SourceGraphic" in2="BackgroundImageFix" result="shape"/>
<feGaussianBlur stdDeviation="10.8731" result="effect1_foregroundBlur_0_282"/>
</filter>
</defs>
</svg>
