<svg width="56" height="56" viewBox="0 0 56 56" fill="none" xmlns="http://www.w3.org/2000/svg">
<circle cx="28" cy="28" r="28" fill="#2563EB"/>
<mask id="mask0_0_282" style="mask-type:luminance" maskUnits="userSpaceOnUse" x="0" y="0" width="56" height="56">
<circle cx="28" cy="28" r="28" fill="white"/>
</mask>
<g mask="url(#mask0_0_282)">
<g filter="url(#filter0_f_0_282)">
<circle cx="28" cy="28" r="12" fill="#2563EB" fill-opacity="0.8"/>
</g>
</g>
<path d="M26.3883 23.1449C26.266 23.1799 26.1585 23.2537 26.0819 23.3552C26.0053 23.4567 25.9639 23.5804 25.9639 23.7075C25.9639 23.8347 26.0053 23.9584 26.0819 24.0599C26.1585 24.1614 26.266 24.2352 26.3883 24.2701H27.2434V24.5964C27.2783 24.7187 27.3521 24.8262 27.4536 24.9028C27.5552 24.9794 27.6788 25.0208 27.806 25.0208C27.9331 25.0208 28.0568 24.9794 28.1583 24.9028C28.2599 24.8262 28.3337 24.7187 28.3686 24.5964V24.2926H28.8299C28.9579 24.2926 29.0847 24.2672 29.2028 24.2179C29.321 24.1686 29.4281 24.0963 29.5181 24.0052C29.6081 23.9142 29.6792 23.8062 29.7272 23.6875C29.7751 23.5688 29.799 23.4417 29.7976 23.3137V22.6499C29.799 22.5218 29.7751 22.3948 29.7272 22.2761C29.6792 22.1574 29.6081 22.0494 29.5181 21.9583C29.4281 21.8673 29.321 21.795 29.2028 21.7457C29.0847 21.6963 28.9579 21.6709 28.8299 21.6709H26.9734V21.3897H29.1112C29.2335 21.3547 29.341 21.2809 29.4176 21.1794C29.4942 21.0779 29.5356 20.9542 29.5356 20.8271C29.5356 20.6999 29.4942 20.5762 29.4176 20.4747C29.341 20.3732 29.2335 20.2994 29.1112 20.2645H28.4136V19.9382C28.3787 19.8159 28.3049 19.7084 28.2034 19.6318C28.1018 19.5552 27.9782 19.5138 27.851 19.5138C27.7239 19.5138 27.6002 19.5552 27.4986 19.6318C27.3971 19.7084 27.3233 19.8159 27.2884 19.9382V20.242H26.8271C26.6991 20.242 26.5723 20.2674 26.4542 20.3167C26.336 20.366 26.2289 20.4383 26.1389 20.5294C26.0488 20.6204 25.9778 20.7284 25.9298 20.8471C25.8819 20.9658 25.858 21.0929 25.8594 21.2209V21.8847C25.858 22.0128 25.8819 22.1398 25.9298 22.2585C25.9778 22.3772 26.0488 22.4852 26.1389 22.5763C26.2289 22.6673 26.336 22.7396 26.4542 22.7889C26.5723 22.8382 26.6991 22.8636 26.8271 22.8636H28.7286V23.1449H26.3883Z" fill="white"/>
<path d="M34.1969 23.3474C34.2362 23.0451 34.2587 22.7408 34.2644 22.436C34.2644 20.7291 33.5863 19.092 32.3794 17.8851C31.1724 16.6781 29.5353 16 27.8284 16C26.1215 16 24.4845 16.6781 23.2775 17.8851C22.0705 19.092 21.3924 20.7291 21.3924 22.436C21.3981 22.7408 21.4207 23.0451 21.4599 23.3474C16.9592 24.7876 14 27.7131 14 31.2236C14 36.1406 20.0759 40 27.8284 40C35.5809 40 41.6568 36.1406 41.6568 31.2236C41.6568 27.7131 38.6639 24.7876 34.1969 23.3474ZM27.8284 18.2504C28.9376 18.2533 30.0005 18.6953 30.7848 19.4796C31.5692 20.2639 32.0111 21.3268 32.0141 22.436C32.0141 22.5485 32.0141 22.661 32.0141 22.7736C31.9533 23.5523 31.6723 24.2976 31.2039 24.9226C30.8195 25.4481 30.3165 25.8756 29.7359 26.1702C29.1552 26.4648 28.5133 26.6184 27.8622 26.6184C27.211 26.6184 26.5691 26.4648 25.9885 26.1702C25.4078 25.8756 24.9049 25.4481 24.5204 24.9226C24.052 24.2976 23.771 23.5523 23.7103 22.7736C23.7103 22.661 23.7103 22.5485 23.7103 22.436C23.713 21.3384 24.1457 20.2855 24.9155 19.5031C25.6853 18.7207 26.731 18.2709 27.8284 18.2504ZM27.8284 37.6934C21.5499 37.6934 16.2504 34.7004 16.2504 31.1674C16.2504 28.7707 18.6695 26.6667 22.1688 25.5415C22.8392 26.7608 23.8848 27.7314 25.1505 28.3094H21.6174C21.319 28.3094 21.0328 28.428 20.8218 28.639C20.6108 28.85 20.4923 29.1362 20.4923 29.4346V32.9677C20.4923 33.2661 20.6108 33.5523 20.8218 33.7633C21.0328 33.9743 21.319 34.0928 21.6174 34.0928H33.9944C34.2928 34.0928 34.579 33.9743 34.79 33.7633C35.001 33.5523 35.1196 33.2661 35.1196 32.9677V29.4008C35.1196 29.1024 35.001 28.8162 34.79 28.6052C34.579 28.3942 34.2928 28.2757 33.9944 28.2757H30.5063C31.7595 27.6917 32.7926 26.7217 33.4543 25.5077C36.9536 26.6329 39.3727 28.7707 39.3727 31.1336C39.4065 34.7229 34.1069 37.6934 27.8284 37.6934ZM32.9142 30.526V31.8087H22.7876V30.526H32.9142Z" fill="white"/>
<defs>
<filter id="filter0_f_0_282" x="-5.74625" y="-5.74625" width="67.4925" height="67.4925" filterUnits="userSpaceOnUse" color-interpolation-filters="sRGB">
<feFlood flood-opacity="0" result="BackgroundImageFix"/>
<feBlend mode="normal" in="SourceGraphic" in2="BackgroundImageFix" result="shape"/>
<feGaussianBlur stdDeviation="10.8731" result="effect1_foregroundBlur_0_282"/>
</filter>
</defs>
</svg>
