<svg width="56" height="56" viewBox="0 0 56 56" fill="none" xmlns="http://www.w3.org/2000/svg">
<circle cx="28" cy="28" r="28" fill="#2563EB"/>
<mask id="mask0_0_282" style="mask-type:luminance" maskUnits="userSpaceOnUse" x="0" y="0" width="56" height="56">
<circle cx="28" cy="28" r="28" fill="white"/>
</mask>
<g mask="url(#mask0_0_282)">
<g filter="url(#filter0_f_0_282)">
<circle cx="28" cy="28" r="12" fill="#2563EB" fill-opacity="0.8"/>
</g>
</g>
<path d="M41.591 26.9123L38.6583 19.4711C38.6583 19.4711 38.6583 19.4711 38.6583 19.4054C38.6139 19.3126 38.5548 19.2276 38.4832 19.1537C38.4594 19.1227 38.4296 19.0966 38.3957 19.0771C38.3329 19.0129 38.2587 18.961 38.1768 18.9239L38.0674 18.8692C37.9324 18.8117 37.7873 18.782 37.6406 18.7817H31.2937C31.0247 18.2157 30.5575 17.7679 29.9806 17.5233C29.8227 17.0777 29.5307 16.692 29.1446 16.4192C28.7586 16.1465 28.2975 16 27.8248 16C27.3521 16 26.8911 16.1465 26.505 16.4192C26.119 16.692 25.8269 17.0777 25.6691 17.5233C25.0675 17.7543 24.5751 18.2037 24.2903 18.7817H17.9434C17.817 18.7867 17.6918 18.8088 17.5713 18.8473C17.4811 18.8917 17.3966 18.9468 17.3196 19.0115L17.2321 19.0881C17.1674 19.1651 17.1123 19.2496 17.0679 19.3398C17.0659 19.3653 17.0659 19.3909 17.0679 19.4164L14.0039 26.9123C13.9987 26.9778 13.9987 27.0437 14.0039 27.1092C13.9988 27.1748 13.9988 27.2407 14.0039 27.3062V27.3609C14.0039 28.426 14.427 29.4475 15.1802 30.2007C15.9334 30.9539 16.9549 31.377 18.02 31.377C19.0851 31.377 20.1066 30.9539 20.8597 30.2007C21.6129 29.4475 22.036 28.426 22.036 27.3609V27.3062C22.0411 27.2407 22.0411 27.1748 22.036 27.1092C22.0413 27.0437 22.0413 26.9778 22.036 26.9123L19.552 20.9703H26.4351V36.9688H24.3012C22.8379 36.8871 21.3863 37.2701 20.1538 38.0631C19.9811 38.205 19.856 38.3965 19.7953 38.6117C19.7347 38.8269 19.7414 39.0555 19.8146 39.2668C19.8899 39.4821 20.0305 39.6685 20.2169 39.8C20.4033 39.9314 20.6261 40.0014 20.8542 40H34.7298C34.9595 40 35.1833 39.9277 35.3696 39.7934C35.556 39.6591 35.6953 39.4696 35.7679 39.2517C35.8406 39.0338 35.8428 38.7986 35.7743 38.5794C35.7058 38.3602 35.5701 38.1681 35.3864 38.0303C34.1662 37.2462 32.7313 36.8635 31.2828 36.936H29.0942V20.9703H35.9773L33.7012 26.9123C33.6959 26.9778 33.6959 27.0437 33.7012 27.1092C33.6961 27.1748 33.6961 27.2407 33.7012 27.3062V27.3609C33.7012 28.426 34.1243 29.4475 34.8774 30.2007C35.6306 30.9539 36.6521 31.377 37.7172 31.377C38.7823 31.377 39.8038 30.9539 40.557 30.2007C41.3101 29.4475 41.7332 28.426 41.7332 27.3609V27.3062C41.7384 27.2407 41.7384 27.1748 41.7332 27.1092C41.6924 27.0391 41.6448 26.9731 41.591 26.9123ZM16.6193 26.201L17.9434 22.8525L19.2675 26.201H16.6193ZM36.3165 26.201L37.6406 22.8525L38.9647 26.201H36.3165Z" fill="white"/>
<defs>
<filter id="filter0_f_0_282" x="-5.74625" y="-5.74625" width="67.4925" height="67.4925" filterUnits="userSpaceOnUse" color-interpolation-filters="sRGB">
<feFlood flood-opacity="0" result="BackgroundImageFix"/>
<feBlend mode="normal" in="SourceGraphic" in2="BackgroundImageFix" result="shape"/>
<feGaussianBlur stdDeviation="10.8731" result="effect1_foregroundBlur_0_282"/>
</filter>
</defs>
</svg>
