<svg width="56" height="56" viewBox="0 0 56 56" fill="none" xmlns="http://www.w3.org/2000/svg">
<circle cx="28" cy="28" r="28" fill="#2563EB"/>
<mask id="mask0_0_282" style="mask-type:luminance" maskUnits="userSpaceOnUse" x="0" y="0" width="56" height="56">
<circle cx="28" cy="28" r="28" fill="white"/>
</mask>
<g mask="url(#mask0_0_282)">
<g filter="url(#filter0_f_0_282)">
<circle cx="28" cy="28" r="12" fill="#2563EB" fill-opacity="0.8"/>
</g>
</g>
<path d="M32.0938 21.5446C32.0938 21.2463 31.9753 20.9602 31.7644 20.7493C31.5535 20.5384 31.2674 20.4199 30.9691 20.4199H20.8473C20.549 20.4199 20.263 20.5384 20.0521 20.7493C19.8411 20.9602 19.7227 21.2463 19.7227 21.5446C19.7227 21.8428 19.8411 22.1289 20.0521 22.3398C20.263 22.5507 20.549 22.6692 20.8473 22.6692H30.9691C31.2674 22.6692 31.5535 22.5507 31.7644 22.3398C31.9753 22.1289 32.0938 21.8428 32.0938 21.5446Z" fill="white"/>
<path d="M29.8445 25.6721C29.8445 25.3739 29.726 25.0878 29.5151 24.8769C29.3042 24.666 29.0181 24.5475 28.7198 24.5475H20.8473C20.549 24.5475 20.263 24.666 20.0521 24.8769C19.8411 25.0878 19.7227 25.3739 19.7227 25.6721C19.7227 25.9704 19.8411 26.2565 20.0521 26.4674C20.263 26.6783 20.549 26.7968 20.8473 26.7968H28.7198C29.0181 26.7968 29.3042 26.6783 29.5151 26.4674C29.726 26.2565 29.8445 25.9704 29.8445 25.6721Z" fill="white"/>
<path d="M27.5952 29.7882C27.5952 29.4899 27.4767 29.2039 27.2658 28.993C27.0549 28.7821 26.7688 28.6636 26.4705 28.6636H20.8473C20.549 28.6636 20.263 28.7821 20.0521 28.993C19.8411 29.2039 19.7227 29.4899 19.7227 29.7882C19.7227 30.0865 19.8411 30.3726 20.0521 30.5835C20.263 30.7944 20.549 30.9129 20.8473 30.9129H26.4705C26.7688 30.9129 27.0549 30.7944 27.2658 30.5835C27.4767 30.3726 27.5952 30.0865 27.5952 29.7882Z" fill="white"/>
<path d="M20.8922 32.791C20.594 32.791 20.3079 32.9095 20.097 33.1204C19.8861 33.3313 19.7676 33.6174 19.7676 33.9157C19.7676 34.2139 19.8861 34.5 20.097 34.7109C20.3079 34.9218 20.594 35.0403 20.8922 35.0403H24.2662C24.5644 35.0403 24.8505 34.9218 25.0614 34.7109C25.2723 34.5 25.3908 34.2139 25.3908 33.9157C25.3908 33.6174 25.2723 33.3313 25.0614 33.1204C24.8505 32.9095 24.5644 32.791 24.2662 32.791H20.8922Z" fill="white"/>
<path d="M24.4573 36.8622H18.2493V18.2493H33.1734V19.2502C33.1734 19.5485 33.2919 19.8346 33.5028 20.0455C33.7137 20.2564 33.9997 20.3749 34.298 20.3749C34.5963 20.3749 34.8823 20.2564 35.0933 20.0455C35.3042 19.8346 35.4227 19.5485 35.4227 19.2502V17.1246C35.4227 16.8264 35.3042 16.5403 35.0933 16.3294C34.8823 16.1185 34.5963 16 34.298 16H17.1246C16.8264 16 16.5403 16.1185 16.3294 16.3294C16.1185 16.5403 16 16.8264 16 17.1246V37.9869C16 38.2851 16.1185 38.5712 16.3294 38.7821C16.5403 38.993 16.8264 39.1115 17.1246 39.1115H24.4573C24.7556 39.1115 25.0417 38.993 25.2526 38.7821C25.4635 38.5712 25.582 38.2851 25.582 37.9869C25.582 37.6886 25.4635 37.4025 25.2526 37.1916C25.0417 36.9807 24.7556 36.8622 24.4573 36.8622Z" fill="white"/>
<path d="M38.2569 21.1285C37.5501 20.6844 36.7133 20.4941 35.8839 20.5886C35.4691 20.6376 35.0704 20.778 34.7164 20.9997C34.3625 21.2214 34.0621 21.5189 33.8371 21.8707L32.7124 23.6927L26.4819 33.8145C26.4819 33.8145 26.4819 33.8145 26.4819 33.8707C26.4212 34.0116 26.3759 34.1587 26.3469 34.3093C26.3469 34.3093 26.3469 34.3093 26.3469 34.3768L26.1895 38.8754C26.1895 39.1737 26.3079 39.4597 26.5189 39.6706C26.7298 39.8816 27.0158 40 27.3141 40C27.4987 39.9991 27.6802 39.9528 27.8427 39.8651L31.8352 37.6833C31.9433 37.6235 32.0388 37.5432 32.1163 37.4471C32.1453 37.4238 32.1717 37.3974 32.1951 37.3684V37.3009L38.4256 27.1791L39.5503 25.3684C39.7644 25.0092 39.8957 24.6068 39.9346 24.1904C39.9735 23.7741 39.919 23.3543 39.7752 22.9616C39.4909 22.1965 38.9557 21.5503 38.2569 21.1285ZM30.4631 35.8838L28.4725 37.0085L28.5512 34.7592L34.0282 25.897L35.9401 27.0216L30.4631 35.8838ZM37.6609 24.255L37.121 25.1097L35.2091 23.9288L35.749 23.0629C35.8006 22.9976 35.8652 22.9439 35.9388 22.9052C36.0124 22.8664 36.0933 22.8435 36.1763 22.8379C36.492 22.8019 36.8103 22.8775 37.076 23.0516C37.3473 23.2157 37.5569 23.4648 37.6721 23.7601C37.7022 23.8375 37.7167 23.9201 37.7148 24.0031C37.7128 24.0861 37.6945 24.1678 37.6609 24.2437V24.255Z" fill="white"/>
<defs>
<filter id="filter0_f_0_282" x="-5.74625" y="-5.74625" width="67.4925" height="67.4925" filterUnits="userSpaceOnUse" color-interpolation-filters="sRGB">
<feFlood flood-opacity="0" result="BackgroundImageFix"/>
<feBlend mode="normal" in="SourceGraphic" in2="BackgroundImageFix" result="shape"/>
<feGaussianBlur stdDeviation="10.8731" result="effect1_foregroundBlur_0_282"/>
</filter>
</defs>
</svg>
