<svg width="56" height="56" viewBox="0 0 56 56" fill="none" xmlns="http://www.w3.org/2000/svg">
<circle cx="28" cy="28" r="28" fill="#2563EB"/>
<mask id="mask0_0_282" style="mask-type:luminance" maskUnits="userSpaceOnUse" x="0" y="0" width="56" height="56">
<circle cx="28" cy="28" r="28" fill="white"/>
</mask>
<g mask="url(#mask0_0_282)">
<g filter="url(#filter0_f_0_282)">
<circle cx="28" cy="28" r="12" fill="#2563EB" fill-opacity="0.8"/>
</g>
</g>
<path d="M38.7225 18.2354L37.2187 18.7166L37.5295 17.2229C37.5559 17.0912 37.556 16.9557 37.5299 16.824C37.5039 16.6923 37.4521 16.567 37.3777 16.4553C37.3032 16.3436 37.2075 16.2476 37.0959 16.1729C36.9843 16.0982 36.8592 16.0462 36.7275 16.0199C36.5959 15.9935 36.4603 15.9934 36.3286 16.0194C36.1969 16.0455 36.0716 16.0972 35.9599 16.1717C35.8482 16.2462 35.7522 16.3419 35.6775 16.4535C35.6028 16.565 35.5508 16.6902 35.5245 16.8219L34.933 19.669L34.1009 20.5111C32.1377 18.8546 29.652 17.9455 27.0833 17.9447C24.5748 17.9321 22.1371 18.775 20.1722 20.3344C18.2074 21.8938 16.8329 24.0765 16.2756 26.5223C15.7183 28.968 16.0115 31.5307 17.1068 33.7874C18.2021 36.0441 20.034 37.86 22.3003 38.9353C24.5666 40.0106 27.1318 40.2812 29.5725 39.7024C32.0133 39.1235 34.1837 37.7298 35.7258 35.7513C37.2678 33.7728 38.0892 31.3276 38.0544 28.8194C38.0196 26.3112 37.1308 23.8898 35.5345 21.9548L36.3867 21.1026L39.304 20.1703C39.5579 20.0905 39.7697 19.9132 39.8929 19.6772C40.016 19.4413 40.0404 19.166 39.9606 18.9121C39.8809 18.6582 39.7035 18.4464 39.4676 18.3232C39.2316 18.2001 38.9564 18.1757 38.7025 18.2555L38.7225 18.2354ZM36.0859 29.0526C36.0859 30.8371 35.5567 32.5816 34.5653 34.0653C33.5739 35.5491 32.1647 36.7056 30.516 37.3885C28.8674 38.0714 27.0532 38.2501 25.303 37.9019C23.5528 37.5538 21.9451 36.6945 20.6832 35.4326C19.4214 34.1708 18.562 32.5631 18.2139 30.8128C17.8658 29.0626 18.0444 27.2485 18.7273 25.5998C19.4103 23.9511 20.5667 22.542 22.0505 21.5505C23.5343 20.5591 25.2787 20.0299 27.0632 20.0299C29.1095 20.0324 31.0924 20.7406 32.6773 22.035L31.0733 23.619C29.9168 22.7533 28.5078 22.2918 27.0632 22.3057C25.5498 22.3029 24.0797 22.8106 22.8904 23.7466C21.7012 24.6827 20.8623 25.9924 20.5095 27.4641C20.1566 28.9358 20.3103 30.4835 20.9458 31.8571C21.5813 33.2307 22.6614 34.3498 24.0115 35.0336C25.3616 35.7174 26.9029 35.926 28.3862 35.6256C29.8695 35.3252 31.2082 34.5334 32.1859 33.3781C33.1636 32.2229 33.7231 30.7717 33.7741 29.2591C33.8251 27.7466 33.3645 26.261 32.4668 25.0425L34.131 23.3683C35.4132 24.9839 36.1031 26.9901 36.0859 29.0526ZM26.3815 29.7644C26.5633 29.9448 26.8072 30.0489 27.0632 30.0551C27.1959 30.0546 27.3271 30.0277 27.4493 29.9761C27.5714 29.9245 27.6822 29.8491 27.775 29.7544L31.0733 26.4862C31.6206 27.3568 31.864 28.3843 31.7654 29.408C31.6667 30.4317 31.2316 31.3938 30.5281 32.1439C29.8246 32.8941 28.8924 33.3899 27.8771 33.554C26.8619 33.718 25.8209 33.541 24.917 33.0506C24.013 32.5602 23.297 31.7841 22.881 30.8436C22.465 29.9031 22.3724 28.8512 22.6176 27.8525C22.8629 26.8537 23.4322 25.9644 24.2366 25.3236C25.0409 24.6828 26.0349 24.3266 27.0632 24.3107C27.9571 24.3121 28.8314 24.5734 29.5795 25.0626L26.3514 28.3007C26.2607 28.3972 26.1899 28.5107 26.1433 28.6346C26.0966 28.7586 26.075 28.8906 26.0797 29.023C26.0843 29.1553 26.1152 29.2855 26.1704 29.4058C26.2257 29.5262 26.3042 29.6345 26.4016 29.7243L26.3815 29.7644Z" fill="white"/>
<defs>
<filter id="filter0_f_0_282" x="-5.74625" y="-5.74625" width="67.4925" height="67.4925" filterUnits="userSpaceOnUse" color-interpolation-filters="sRGB">
<feFlood flood-opacity="0" result="BackgroundImageFix"/>
<feBlend mode="normal" in="SourceGraphic" in2="BackgroundImageFix" result="shape"/>
<feGaussianBlur stdDeviation="10.8731" result="effect1_foregroundBlur_0_282"/>
</filter>
</defs>
</svg>
