<svg width="56" height="56" viewBox="0 0 56 56" fill="none" xmlns="http://www.w3.org/2000/svg">
<circle cx="28" cy="28" r="28" fill="#2563EB"/>
<mask id="mask0_0_282" style="mask-type:luminance" maskUnits="userSpaceOnUse" x="0" y="0" width="56" height="56">
<circle cx="28" cy="28" r="28" fill="white"/>
</mask>
<g mask="url(#mask0_0_282)">
<g filter="url(#filter0_f_0_282)">
<circle cx="28" cy="28" r="12" fill="#2563EB" fill-opacity="0.8"/>
</g>
</g>
<path d="M23.1522 39.3348C23.2034 39.4962 23.2954 39.6416 23.4194 39.7569C23.5433 39.8722 23.6949 39.9535 23.8595 39.993C23.9378 40.0025 24.017 40.0025 24.0953 39.993C24.353 39.9919 24.6 39.8896 24.783 39.7081L27.9756 36.5252C28.1002 36.3982 28.188 36.2397 28.2295 36.0667C28.271 35.8937 28.2648 35.7126 28.2114 35.5429C26.9049 31.4955 23.9774 28.5583 19.5273 26.8293C19.3518 26.757 19.1592 26.7371 18.9726 26.772C18.7861 26.8068 18.6137 26.895 18.4762 27.0258L15.2835 30.2283C15.1656 30.3476 15.0803 30.4951 15.0356 30.6567C14.9908 30.8184 14.9883 30.9888 15.0281 31.1517C15.0666 31.3152 15.1465 31.4661 15.26 31.5899C15.3735 31.7137 15.5169 31.8064 15.6764 31.859C17.4521 32.373 19.0688 33.3281 20.376 34.6352C21.6831 35.9424 22.6382 37.5591 23.1522 39.3348ZM19.3996 28.8923C20.934 29.4689 22.3287 30.3641 23.492 31.5189C24.6553 32.6737 25.5606 34.0619 26.1484 35.592L24.4686 37.262C23.1781 34.2391 20.7661 31.8341 17.7394 30.5525L19.3996 28.8923Z" fill="white"/>
<path d="M40.4419 24.3143C39.2851 21.2835 37.4815 18.5412 35.1567 16.2786C35.0139 16.1395 34.8322 16.0472 34.6357 16.0138C34.4392 15.9805 34.2372 16.0077 34.0565 16.0919C25.1661 20.1491 22.0913 25.4637 21.9635 25.6896C21.8355 25.9152 21.8018 26.1823 21.8699 26.4326C21.938 26.6829 22.1023 26.8961 22.327 27.0257C22.4391 27.0906 22.563 27.1327 22.6915 27.1496C22.82 27.1665 22.9505 27.1578 23.0756 27.124C23.2007 27.0902 23.3179 27.032 23.4204 26.9528C23.5229 26.8735 23.6087 26.7747 23.6729 26.6622C23.6729 26.6131 26.4628 21.9272 34.2628 18.1647C35.9512 19.929 37.3147 21.9776 38.2905 24.2161C36.3257 25.3655 31.0996 28.6466 28.6436 32.075C28.5392 32.2216 28.4771 32.3941 28.4641 32.5736C28.4511 32.7532 28.4876 32.9328 28.5697 33.093C28.6518 33.2531 28.7763 33.3877 28.9297 33.4819C29.0831 33.5761 29.2594 33.6263 29.4394 33.6272C29.5944 33.6276 29.7473 33.5913 29.8856 33.5213C30.0239 33.4513 30.1436 33.3495 30.2351 33.2244C32.9562 29.4718 39.9212 25.5914 39.99 25.5521C40.2053 25.4385 40.3707 25.2489 40.4542 25.0202C40.5377 24.7915 40.5333 24.54 40.4419 24.3143Z" fill="white"/>
<path d="M30.8049 22.9292C30.9312 22.8674 31.0428 22.7793 31.1322 22.6707C31.2215 22.5621 31.2865 22.4355 31.3227 22.2997C31.3589 22.1638 31.3656 22.0217 31.3422 21.8831C31.3188 21.7444 31.2659 21.6124 31.187 21.4959C31.1082 21.3795 31.0053 21.2813 30.8853 21.2081C30.7653 21.1348 30.6309 21.0882 30.4913 21.0713C30.3517 21.0544 30.2101 21.0677 30.0761 21.1103C29.9421 21.1529 29.8187 21.2237 29.7145 21.3181L28.4276 22.212C28.0918 22.4475 27.833 22.7769 27.6837 23.1589C27.5344 23.5409 27.5012 23.9585 27.5883 24.3593C27.6753 24.7601 27.8788 25.1262 28.1732 25.4118C28.4675 25.6974 28.8397 25.8897 29.2429 25.9647C29.5115 26.0145 29.7873 26.0098 30.054 25.9507C30.3207 25.8916 30.5727 25.7795 30.7951 25.6208L31.4238 25.1886C31.4329 25.1764 31.4448 25.1665 31.4584 25.1597C31.4721 25.1529 31.4871 25.1493 31.5024 25.1493C31.5176 25.1493 31.5327 25.1529 31.5463 25.1597C31.5599 25.1665 31.5718 25.1764 31.581 25.1886L31.8658 25.5914C31.8819 25.6144 31.8905 25.6419 31.8905 25.67C31.8905 25.6981 31.8819 25.7255 31.8658 25.7485L30.3333 26.8095C30.1621 26.929 30.0334 27.1 29.9659 27.2977C29.8984 27.4953 29.8957 27.7093 29.9581 27.9086C30.0206 28.108 30.1449 28.2822 30.313 28.406C30.4812 28.5299 30.6844 28.5969 30.8933 28.5974C31.0936 28.5969 31.289 28.5352 31.4532 28.4206L32.9857 27.3596C33.41 27.0391 33.6949 26.5679 33.7815 26.0433C33.833 25.7738 33.8299 25.4967 33.7726 25.2285C33.7152 24.9602 33.6047 24.7061 33.4474 24.4813L33.1724 24.0883C32.8569 23.6357 32.3753 23.326 31.8326 23.2266C31.2898 23.1273 30.7298 23.2463 30.2744 23.5579L29.6457 23.9999C29.6356 24.0106 29.6234 24.0192 29.6099 24.025C29.5964 24.0308 29.5818 24.0338 29.5671 24.0338C29.5524 24.0338 29.5378 24.0308 29.5243 24.025C29.5108 24.0192 29.4986 24.0106 29.4885 23.9999C29.4725 23.9769 29.4638 23.9494 29.4638 23.9213C29.4638 23.8932 29.4725 23.8658 29.4885 23.8428L30.8049 22.9292Z" fill="white"/>
<path d="M19.8908 25.1592C20.055 25.2738 20.2504 25.3355 20.4507 25.336C20.6091 25.3358 20.7651 25.2972 20.9053 25.2237C21.0456 25.1501 21.166 25.0437 21.2563 24.9136C21.9456 23.7935 22.3849 22.5378 22.5443 21.2324C22.7037 19.9269 22.5793 18.6024 22.1797 17.3494C22.1488 17.2188 22.0915 17.096 22.0113 16.9885C21.9311 16.8809 21.8297 16.7909 21.7134 16.7241C21.5971 16.6572 21.4683 16.6149 21.335 16.5997C21.2017 16.5845 21.0667 16.5968 20.9383 16.6358C20.81 16.6747 20.6909 16.7396 20.5886 16.8264C20.4863 16.9131 20.4028 17.0199 20.3433 17.1401C20.2838 17.2604 20.2496 17.3915 20.2427 17.5255C20.2358 17.6595 20.2565 17.7935 20.3034 17.9192C20.6223 18.8914 20.7286 19.9209 20.6151 20.9378C20.5015 21.9547 20.1707 22.9354 19.6452 23.8134C19.5032 24.0256 19.4494 24.2848 19.4952 24.536C19.5411 24.7873 19.6829 25.0108 19.8908 25.1592Z" fill="white"/>
<path d="M16.2462 25.7192C16.1932 25.8396 16.1649 25.9693 16.163 26.1008C16.1611 26.2323 16.1856 26.3629 16.235 26.4847C16.2845 26.6066 16.3579 26.7172 16.451 26.8102C16.544 26.9031 16.6548 26.9764 16.7767 27.0258C16.8959 27.0714 17.0224 27.0947 17.15 27.0945C17.3445 27.0963 17.5351 27.0403 17.6978 26.9336C17.8604 26.8269 17.9877 26.6744 18.0636 26.4953C19.6845 22.5658 17.2187 18.5676 17.0812 18.4006C16.9319 18.2227 16.7243 18.1034 16.4954 18.064C16.2664 18.0246 16.0309 18.0677 15.8307 18.1854C15.6305 18.3032 15.4785 18.4881 15.4017 18.7074C15.3249 18.9266 15.3282 19.166 15.4112 19.3829C15.4112 19.3829 17.4742 22.7721 16.2462 25.7192Z" fill="white"/>
<path d="M31.974 35.366C32.8527 34.8423 33.8333 34.5126 34.8499 34.3991C35.8665 34.2855 36.8957 34.3908 37.8682 34.7078C38.1144 34.7756 38.3772 34.745 38.6011 34.6223C38.825 34.4996 38.9924 34.2946 39.0677 34.0507C39.1431 33.8068 39.1205 33.5431 39.0048 33.3155C38.8891 33.0879 38.6893 32.9144 38.4478 32.8315C37.1941 32.4258 35.867 32.2983 34.5589 32.4578C33.2509 32.6172 31.9933 33.0599 30.8738 33.755C30.6632 33.9035 30.5194 34.1289 30.4735 34.3825C30.4276 34.6361 30.4831 34.8976 30.6282 35.1106C30.7194 35.2421 30.8414 35.3493 30.9835 35.423C31.1256 35.4966 31.2835 35.5344 31.4436 35.533C31.6328 35.5296 31.817 35.4716 31.974 35.366Z" fill="white"/>
<path d="M28.7321 38.2443C28.8338 38.4838 29.0265 38.6732 29.2678 38.7708C29.5091 38.8685 29.7792 38.8663 30.019 38.7649C32.9661 37.5468 36.2766 39.5508 36.3258 39.5803C36.4793 39.6754 36.656 39.7264 36.8366 39.7276C37.0505 39.7283 37.2588 39.6592 37.4298 39.5307C37.6008 39.4022 37.7252 39.2215 37.7841 39.0158C37.843 38.8102 37.8332 38.591 37.7562 38.3914C37.6791 38.1919 37.5391 38.0229 37.3572 37.9103C37.1902 37.8022 33.1625 35.3365 29.2625 36.9279C29.1394 36.9771 29.0275 37.0508 28.9336 37.1445C28.8397 37.2381 28.7658 37.3498 28.7162 37.4728C28.6667 37.5958 28.6425 37.7276 28.6452 37.8602C28.6479 37.9927 28.6775 38.1234 28.7321 38.2443Z" fill="white"/>
<defs>
<filter id="filter0_f_0_282" x="-5.74625" y="-5.74625" width="67.4925" height="67.4925" filterUnits="userSpaceOnUse" color-interpolation-filters="sRGB">
<feFlood flood-opacity="0" result="BackgroundImageFix"/>
<feBlend mode="normal" in="SourceGraphic" in2="BackgroundImageFix" result="shape"/>
<feGaussianBlur stdDeviation="10.8731" result="effect1_foregroundBlur_0_282"/>
</filter>
</defs>
</svg>
