<svg width="56" height="56" viewBox="0 0 56 56" fill="none" xmlns="http://www.w3.org/2000/svg">
<circle cx="28" cy="28" r="28" fill="#2563EB"/>
<mask id="mask0_0_282" style="mask-type:luminance" maskUnits="userSpaceOnUse" x="0" y="0" width="56" height="56">
<circle cx="28" cy="28" r="28" fill="white"/>
</mask>
<g mask="url(#mask0_0_282)">
<g filter="url(#filter0_f_0_282)">
<circle cx="28" cy="28" r="12" fill="#2563EB" fill-opacity="0.8"/>
</g>
</g>
<path d="M32.0135 39.1971C32.1439 39.1975 32.2731 39.173 32.3943 39.1251C34.6322 38.247 36.5521 36.7126 37.9021 34.7235C39.2521 32.7343 39.9689 30.3834 39.9585 27.9794C39.9505 25.558 39.2126 23.1952 37.8412 21.1995C36.4698 19.2039 34.5285 17.6681 32.2708 16.7926C32.0169 16.6951 31.7347 16.7021 31.486 16.812C31.2372 16.922 31.0421 17.1259 30.9432 17.3792C30.8933 17.5055 30.869 17.6405 30.8715 17.7763C30.8741 17.912 30.9034 18.0459 30.958 18.1703C31.0125 18.2947 31.0911 18.407 31.1892 18.5009C31.2874 18.5947 31.4031 18.6682 31.5298 18.7171C33.403 19.4298 35.0168 20.6925 36.159 22.3393C37.3012 23.9861 37.9185 25.94 37.9296 27.9442C37.9407 29.9483 37.3452 31.9089 36.2214 33.5684C35.0975 35.2278 33.4979 36.5084 31.6327 37.2418C31.4098 37.3299 31.2245 37.4931 31.1091 37.7032C30.9936 37.9133 30.9551 38.1572 31.0003 38.3926C31.0454 38.6281 31.1713 38.8404 31.3563 38.9929C31.5413 39.1455 31.7738 39.2286 32.0135 39.228V39.1971Z" fill="white"/>
<path d="M33.5781 24.892C33.4821 24.7924 33.367 24.7131 33.2397 24.659C33.1124 24.6049 32.9754 24.577 32.8371 24.577C32.6988 24.577 32.5619 24.6049 32.4345 24.659C32.3072 24.7131 32.1921 24.7924 32.0961 24.892L26.3226 30.6655L23.863 28.1749C23.7673 28.0785 23.6535 28.0019 23.528 27.9497C23.4026 27.8974 23.2681 27.8705 23.1323 27.8705C22.9964 27.8705 22.8619 27.8974 22.7365 27.9497C22.6111 28.0019 22.4972 28.0785 22.4016 28.1749C22.2099 28.3678 22.1023 28.6286 22.1023 28.9005C22.1023 29.1724 22.2099 29.4332 22.4016 29.626L25.6331 32.8781C25.7284 32.9754 25.8421 33.0528 25.9675 33.1057C26.0929 33.1587 26.2276 33.1863 26.3638 33.1869C26.4999 33.1863 26.6346 33.1587 26.7601 33.1057C26.8855 33.0528 26.9992 32.9754 27.0945 32.8781L33.5987 26.3842C33.6986 26.2867 33.7776 26.1699 33.8309 26.0408C33.8842 25.9118 33.9107 25.7733 33.9088 25.6337C33.9068 25.4941 33.8765 25.3563 33.8197 25.2288C33.7628 25.1013 33.6806 24.9867 33.5781 24.892Z" fill="white"/>
<path d="M25.7461 16.206C25.4732 16.2306 25.2212 16.3625 25.0455 16.5729C24.8699 16.7833 24.785 17.0548 24.8096 17.3278C24.8341 17.6007 24.9661 17.8527 25.1765 18.0283C25.3869 18.204 25.6584 18.2888 25.9314 18.2643C25.9927 18.2745 26.0553 18.2745 26.1166 18.2643C26.73 18.1395 27.3535 18.0706 27.9794 18.0585C28.2523 18.0585 28.5141 17.95 28.7071 17.757C28.9001 17.564 29.0085 17.3023 29.0085 17.0293C29.0085 16.7564 28.9001 16.4946 28.7071 16.3016C28.5141 16.1086 28.2523 16.0002 27.9794 16.0002C27.23 15.9962 26.4821 16.0651 25.7461 16.206Z" fill="white"/>
<path d="M16.1752 25.9211C16.0559 26.6007 15.9973 27.2895 16.0002 27.9794C15.9957 28.6694 16.0543 29.3584 16.1752 30.0377C16.2169 30.2793 16.3434 30.4982 16.5321 30.6548C16.7208 30.8114 16.9592 30.8955 17.2043 30.8919H17.3793C17.5134 30.8695 17.6417 30.8208 17.7568 30.7485C17.8719 30.6762 17.9716 30.5819 18.0501 30.4709C18.1285 30.3599 18.1842 30.2344 18.2139 30.1018C18.2437 29.9692 18.2468 29.8319 18.2232 29.6981C18.1156 29.1315 18.0604 28.5561 18.0585 27.9794C18.055 27.4034 18.1032 26.8282 18.2026 26.2607C18.2256 26.1256 18.2217 25.9872 18.1912 25.8536C18.1607 25.7199 18.1042 25.5936 18.0249 25.4818C17.9456 25.37 17.845 25.2749 17.7289 25.2019C17.6129 25.129 17.4836 25.0796 17.3484 25.0566C17.2133 25.0337 17.0749 25.0375 16.9413 25.068C16.8076 25.0985 16.6813 25.155 16.5695 25.2344C16.4577 25.3137 16.3626 25.4142 16.2896 25.5303C16.2167 25.6464 16.1673 25.7757 16.1443 25.9108L16.1752 25.9211Z" fill="white"/>
<path d="M21.0225 18.2231C19.8925 19.022 18.9134 20.0151 18.1306 21.1562C18.0236 21.3104 17.9608 21.491 17.949 21.6784C17.9373 21.8658 17.977 22.0528 18.0639 22.2192C18.1509 22.3857 18.2817 22.5251 18.4421 22.6226C18.6026 22.72 18.7867 22.7716 18.9745 22.7719C19.1404 22.7717 19.3038 22.7313 19.4507 22.6542C19.5977 22.5772 19.7238 22.4657 19.8184 22.3294C20.4719 21.3878 21.2831 20.5661 22.2163 19.9006C22.3268 19.8218 22.4206 19.722 22.4924 19.6068C22.5641 19.4916 22.6124 19.3634 22.6344 19.2295C22.6564 19.0956 22.6517 18.9586 22.6206 18.8265C22.5894 18.6944 22.5325 18.5698 22.453 18.4598C22.294 18.2396 22.0545 18.0911 21.7865 18.0468C21.5185 18.0024 21.2439 18.0658 21.0225 18.2231Z" fill="white"/>
<path d="M21.0016 37.7254C21.1769 37.8482 21.3846 37.9163 21.5985 37.9209C21.7636 37.9218 21.9264 37.883 22.0732 37.8078C22.2201 37.7326 22.3467 37.6231 22.4424 37.4887C22.5219 37.3787 22.5789 37.2541 22.61 37.122C22.6412 36.9899 22.6459 36.853 22.6239 36.719C22.6019 36.5851 22.5536 36.4569 22.4818 36.3417C22.4101 36.2265 22.3162 36.1267 22.2057 36.0479C21.2749 35.3796 20.4641 34.5584 19.8078 33.6191C19.7378 33.4943 19.6425 33.3856 19.528 33.2997C19.4135 33.2139 19.2824 33.1528 19.143 33.1205C19.0036 33.0882 18.859 33.0852 18.7184 33.1119C18.5779 33.1387 18.4444 33.1944 18.3266 33.2756C18.2087 33.3567 18.1091 33.4616 18.0341 33.5835C17.9591 33.7053 17.9103 33.8415 17.8909 33.9832C17.8714 34.125 17.8818 34.2692 17.9212 34.4068C17.9607 34.5443 18.0284 34.6721 18.12 34.782C18.9044 35.9214 19.8792 36.9171 21.0016 37.7254Z" fill="white"/>
<path d="M26.1167 37.7357C25.8437 37.6865 25.5624 37.7478 25.3347 37.9061C25.107 38.0644 24.9514 38.3066 24.9023 38.5796C24.8532 38.8525 24.9145 39.1338 25.0727 39.3615C25.231 39.5893 25.4732 39.7448 25.7462 39.794C26.4822 39.9348 27.2301 40.0037 27.9794 39.9998C28.2524 39.9998 28.5141 39.8914 28.7072 39.6984C28.9002 39.5053 29.0086 39.2436 29.0086 38.9706C29.0086 38.6977 28.9002 38.4359 28.7072 38.2429C28.5141 38.0499 28.2524 37.9415 27.9794 37.9415C27.3536 37.9293 26.7301 37.8604 26.1167 37.7357Z" fill="white"/>
<defs>
<filter id="filter0_f_0_282" x="-5.74625" y="-5.74625" width="67.4925" height="67.4925" filterUnits="userSpaceOnUse" color-interpolation-filters="sRGB">
<feFlood flood-opacity="0" result="BackgroundImageFix"/>
<feBlend mode="normal" in="SourceGraphic" in2="BackgroundImageFix" result="shape"/>
<feGaussianBlur stdDeviation="10.8731" result="effect1_foregroundBlur_0_282"/>
</filter>
</defs>
</svg>
