<svg width="56" height="56" viewBox="0 0 56 56" fill="none" xmlns="http://www.w3.org/2000/svg">
<circle cx="28" cy="28" r="28" fill="#2563EB"/>
<mask id="mask0_0_282" style="mask-type:luminance" maskUnits="userSpaceOnUse" x="0" y="0" width="56" height="56">
<circle cx="28" cy="28" r="28" fill="white"/>
</mask>
<g mask="url(#mask0_0_282)">
<g filter="url(#filter0_f_0_282)">
<circle cx="28" cy="28" r="12" fill="#2563EB" fill-opacity="0.8"/>
</g>
</g>
<path d="M41.1294 31.7294L36.8941 28.5882C36.7719 28.4817 36.6289 28.4016 36.4742 28.3529C36.3195 28.3042 36.1565 28.2881 35.9952 28.3054C35.834 28.3228 35.6781 28.3733 35.5373 28.4537C35.3966 28.5342 35.2739 28.6429 35.1771 28.773C35.0804 28.9032 35.0115 29.0519 34.975 29.2099C34.9384 29.3678 34.9349 29.5317 34.9647 29.6911C34.9944 29.8505 35.0568 30.002 35.1479 30.1362C35.2391 30.2703 35.3569 30.3842 35.4941 30.4706L36.8706 31.5059H33.5294V25.8471C33.5283 25.702 33.5004 25.5584 33.4471 25.4235L33.3765 25.3059C33.3562 25.2477 33.3285 25.1923 33.2941 25.1412L26.8471 16.4L26.6235 16.2C26.5656 16.1503 26.5025 16.1069 26.4353 16.0706L26.2353 16H26H15.1765C14.8645 16 14.5652 16.1239 14.3446 16.3446C14.1239 16.5652 14 16.8645 14 17.1765V38.8235C14 39.1355 14.1239 39.4348 14.3446 39.6554C14.5652 39.8761 14.8645 40 15.1765 40H32.3529C32.665 40 32.9642 39.8761 33.1848 39.6554C33.4055 39.4348 33.5294 39.1355 33.5294 38.8235V33.8471H36.8706L35.4941 34.8706C35.3696 34.9624 35.2645 35.0779 35.1846 35.2104C35.1048 35.3429 35.0519 35.4899 35.029 35.6429C35.006 35.7959 35.0135 35.9519 35.0509 36.102C35.0883 36.2521 35.155 36.3933 35.2471 36.5176C35.3566 36.6638 35.4987 36.7824 35.6621 36.864C35.8255 36.9457 36.0056 36.9882 36.1882 36.9882C36.4428 36.9882 36.6905 36.9057 36.8941 36.7529L41.1294 33.6118C41.2778 33.5024 41.3984 33.3597 41.4815 33.1952C41.5646 33.0307 41.6079 32.849 41.6079 32.6647C41.6079 32.4804 41.5646 32.2987 41.4815 32.1342C41.3984 31.9697 41.2778 31.827 41.1294 31.7176V31.7294ZM27.0824 20.6824L30.0235 24.6706H27.0824V20.6824ZM31.1765 31.4941H26C25.688 31.4941 25.3887 31.6181 25.1681 31.8387C24.9475 32.0593 24.8235 32.3586 24.8235 32.6706C24.8235 32.9826 24.9475 33.2818 25.1681 33.5025C25.3887 33.7231 25.688 33.8471 26 33.8471H31.1765V37.6353H16.3529V18.2824H24.7294V25.8471C24.7294 26.1591 24.8534 26.4583 25.074 26.6789C25.2946 26.8996 25.5939 27.0235 25.9059 27.0235H31.1765V31.4941Z" fill="white"/>
<defs>
<filter id="filter0_f_0_282" x="-5.74625" y="-5.74625" width="67.4925" height="67.4925" filterUnits="userSpaceOnUse" color-interpolation-filters="sRGB">
<feFlood flood-opacity="0" result="BackgroundImageFix"/>
<feBlend mode="normal" in="SourceGraphic" in2="BackgroundImageFix" result="shape"/>
<feGaussianBlur stdDeviation="10.8731" result="effect1_foregroundBlur_0_282"/>
</filter>
</defs>
</svg>
