<svg width="56" height="56" viewBox="0 0 56 56" fill="none" xmlns="http://www.w3.org/2000/svg">
<circle cx="28" cy="28" r="28" fill="#2563EB"/>
<mask id="mask0_0_282" style="mask-type:luminance" maskUnits="userSpaceOnUse" x="0" y="0" width="56" height="56">
<circle cx="28" cy="28" r="28" fill="white"/>
</mask>
<g mask="url(#mask0_0_282)">
<g filter="url(#filter0_f_0_282)">
<circle cx="28" cy="28" r="12" fill="#2563EB" fill-opacity="0.8"/>
</g>
</g>
<path d="M28 16C25.6266 16 23.3066 16.7038 21.3332 18.0224C19.3598 19.3409 17.8217 21.2151 16.9135 23.4078C16.0052 25.6005 15.7676 28.0133 16.2306 30.3411C16.6936 32.6689 17.8365 34.807 19.5147 36.4853C21.193 38.1635 23.3311 39.3064 25.6589 39.7694C27.9867 40.2324 30.3995 39.9948 32.5922 39.0865C34.7849 38.1783 36.6591 36.6402 37.9776 34.6668C39.2962 32.6934 40 30.3734 40 28C39.9974 24.8182 38.7323 21.7674 36.4825 19.5175C34.2326 17.2677 31.1818 16.0026 28 16ZM28 38.0738C26.0076 38.0738 24.0599 37.483 22.4033 36.3761C20.7466 35.2692 19.4555 33.6958 18.693 31.8551C17.9305 30.0143 17.731 27.9888 18.1197 26.0347C18.5084 24.0806 19.4679 22.2856 20.8767 20.8767C22.2856 19.4679 24.0806 18.5084 26.0347 18.1197C27.9888 17.731 30.0143 17.9305 31.8551 18.693C33.6958 19.4555 35.2692 20.7466 36.3761 22.4033C37.483 24.0599 38.0738 26.0076 38.0738 28C38.0713 30.671 37.0091 33.2318 35.1205 35.1205C33.2318 37.0091 30.671 38.0713 28 38.0738Z" fill="white"/>
<path d="M24.2632 26.8731C24.793 26.8731 25.3109 26.7164 25.7519 26.4228C26.1929 26.1293 26.5373 25.7119 26.7418 25.2231C26.9462 24.7344 27.0016 24.1961 26.901 23.6759C26.8004 23.1558 26.5483 22.677 26.1764 22.2997C25.8045 21.9224 25.3293 21.6635 24.8106 21.5556C24.292 21.4476 23.7529 21.4953 23.2613 21.6928C22.7697 21.8903 22.3475 22.2287 22.0477 22.6654C21.7478 23.1022 21.5838 23.6179 21.5762 24.1476C21.5711 24.5037 21.6368 24.8573 21.7696 25.1877C21.9023 25.5182 22.0994 25.819 22.3495 26.0726C22.5995 26.3262 22.8974 26.5275 23.226 26.665C23.5545 26.8024 23.9071 26.8732 24.2632 26.8731ZM24.2632 23.4253C24.4137 23.4253 24.5608 23.4699 24.6859 23.5535C24.811 23.6371 24.9085 23.756 24.9661 23.895C25.0237 24.034 25.0388 24.187 25.0094 24.3346C24.9801 24.4822 24.9076 24.6177 24.8012 24.7241C24.6948 24.8305 24.5592 24.903 24.4116 24.9324C24.264 24.9617 24.1111 24.9466 23.972 24.8891C23.833 24.8315 23.7142 24.734 23.6306 24.6088C23.547 24.4837 23.5024 24.3366 23.5024 24.1861C23.5024 23.9844 23.5825 23.7908 23.7252 23.6482C23.8679 23.5055 24.0614 23.4253 24.2632 23.4253Z" fill="white"/>
<path d="M31.7368 29.1268C31.207 29.1269 30.689 29.2836 30.248 29.5771C29.807 29.8707 29.4627 30.2881 29.2582 30.7769C29.0538 31.2656 28.9983 31.8039 29.0989 32.324C29.1995 32.8442 29.4516 33.323 29.8236 33.7003C30.1955 34.0775 30.6707 34.3364 31.1893 34.4444C31.708 34.5524 32.247 34.5047 32.7386 34.3072C33.2302 34.1097 33.6525 33.7713 33.9523 33.3345C34.2522 32.8977 34.4162 32.3821 34.4238 31.8524C34.4289 31.4963 34.3631 31.1427 34.2304 30.8122C34.0977 30.4818 33.9005 30.181 33.6505 29.9274C33.4005 29.6738 33.1026 29.4724 32.774 29.335C32.4455 29.1976 32.0929 29.1268 31.7368 29.1268ZM31.7368 32.5747C31.5863 32.5747 31.4392 32.53 31.3141 32.4464C31.189 32.3628 31.0914 32.244 31.0339 32.105C30.9763 31.966 30.9612 31.813 30.9906 31.6654C31.0199 31.5178 31.0924 31.3822 31.1988 31.2758C31.3052 31.1694 31.4408 31.097 31.5883 31.0676C31.7359 31.0383 31.8889 31.0533 32.0279 31.1109C32.167 31.1685 32.2858 31.266 32.3694 31.3911C32.453 31.5162 32.4976 31.6633 32.4976 31.8138C32.4976 32.0156 32.4174 32.2091 32.2748 32.3518C32.1321 32.4945 31.9386 32.5747 31.7368 32.5747Z" fill="white"/>
<path d="M33.6146 22.3852C33.4341 22.2058 33.19 22.1051 32.9356 22.1051C32.6812 22.1051 32.4371 22.2058 32.2566 22.3852L22.385 32.2567C22.2057 32.4372 22.105 32.6813 22.105 32.9357C22.105 33.1902 22.2057 33.4342 22.385 33.6147C22.5629 33.7961 22.8052 33.9 23.0592 33.9036C23.1866 33.9031 23.3127 33.8773 23.43 33.8277C23.5474 33.7781 23.6538 33.7057 23.743 33.6147L33.6146 23.7431C33.7939 23.5627 33.8946 23.3186 33.8946 23.0641C33.8946 22.8097 33.7939 22.5656 33.6146 22.3852Z" fill="white"/>
<defs>
<filter id="filter0_f_0_282" x="-5.74625" y="-5.74625" width="67.4925" height="67.4925" filterUnits="userSpaceOnUse" color-interpolation-filters="sRGB">
<feFlood flood-opacity="0" result="BackgroundImageFix"/>
<feBlend mode="normal" in="SourceGraphic" in2="BackgroundImageFix" result="shape"/>
<feGaussianBlur stdDeviation="10.8731" result="effect1_foregroundBlur_0_282"/>
</filter>
</defs>
</svg>
