<svg width="56" height="56" viewBox="0 0 56 56" fill="none" xmlns="http://www.w3.org/2000/svg">
<circle cx="28" cy="28" r="28" fill="#2563EB"/>
<mask id="mask0_0_282" style="mask-type:luminance" maskUnits="userSpaceOnUse" x="0" y="0" width="56" height="56">
<circle cx="28" cy="28" r="28" fill="white"/>
</mask>
<g mask="url(#mask0_0_282)">
<g filter="url(#filter0_f_0_282)">
<circle cx="28" cy="28" r="12" fill="#2563EB" fill-opacity="0.8"/>
</g>
</g>
<path d="M26.0875 30.9096C26.3791 30.9084 26.659 30.7948 26.869 30.5925L32.237 25.4849C32.4547 25.2777 32.5812 24.9924 32.5887 24.6919C32.5961 24.3914 32.4839 24.1002 32.2766 23.8824C32.174 23.7746 32.0511 23.6881 31.9151 23.6277C31.779 23.5674 31.6324 23.5344 31.4836 23.5307C31.1831 23.5233 30.8919 23.6356 30.6741 23.8428L26.1442 28.1463L24.4001 26.1418C24.302 26.0295 24.1827 25.9376 24.049 25.8715C23.9154 25.8053 23.77 25.7661 23.6212 25.7561C23.3207 25.7359 23.0244 25.8359 22.7977 26.0342C22.6854 26.1323 22.5935 26.2516 22.5273 26.3853C22.4612 26.519 22.422 26.6643 22.412 26.8131C22.3918 27.1137 22.4918 27.4099 22.6901 27.6367L25.3514 30.5245C25.5392 30.7415 25.8023 30.8791 26.0875 30.9096Z" fill="white"/>
<path d="M27.1069 39.8789C27.265 39.9585 27.4396 40 27.6166 40C27.7936 40 27.9681 39.9585 28.1262 39.8789C33.7094 37.059 39.9268 31.1134 37.809 18.7692C37.775 18.5808 37.6939 18.404 37.573 18.2555C37.4522 18.107 37.2957 17.9915 37.1182 17.9198C34.1146 16.6528 30.8878 16 27.6279 16C24.368 16 21.1412 16.6528 18.1376 17.9198C17.9558 17.9883 17.7947 18.1024 17.6698 18.2512C17.5448 18.3999 17.4602 18.5783 17.4241 18.7692C15.3064 31.1134 21.5238 37.059 27.1069 39.8789ZM19.5759 19.7884C24.7448 17.7617 30.4884 17.7617 35.6573 19.7884C36.9143 28.0556 34.2077 34.0465 27.6166 37.5912C21.0255 34.0465 18.3188 28.0556 19.5759 19.7884Z" fill="white"/>
<defs>
<filter id="filter0_f_0_282" x="-5.74625" y="-5.74625" width="67.4925" height="67.4925" filterUnits="userSpaceOnUse" color-interpolation-filters="sRGB">
<feFlood flood-opacity="0" result="BackgroundImageFix"/>
<feBlend mode="normal" in="SourceGraphic" in2="BackgroundImageFix" result="shape"/>
<feGaussianBlur stdDeviation="10.8731" result="effect1_foregroundBlur_0_282"/>
</filter>
</defs>
</svg>
