<svg width="56" height="56" viewBox="0 0 56 56" fill="none" xmlns="http://www.w3.org/2000/svg">
<circle cx="28" cy="28" r="28" fill="#2563EB"/>
<mask id="mask0_0_282" style="mask-type:luminance" maskUnits="userSpaceOnUse" x="0" y="0" width="56" height="56">
<circle cx="28" cy="28" r="28" fill="white"/>
</mask>
<g mask="url(#mask0_0_282)">
<g filter="url(#filter0_f_0_282)">
<circle cx="28" cy="28" r="12" fill="#2563EB" fill-opacity="0.8"/>
</g>
</g>
<path d="M34.3922 20.2912L32.4935 22.902L31.5441 21.9052C31.3713 21.7356 31.1403 21.6385 30.8983 21.6337C30.6563 21.6289 30.4215 21.7166 30.2421 21.8791C30.0627 22.0416 29.9521 22.2665 29.9329 22.5078C29.9138 22.7491 29.9875 22.9886 30.1391 23.1773L31.8384 25.076C31.9272 25.1744 32.0355 25.2531 32.1565 25.307C32.2775 25.361 32.4085 25.389 32.541 25.3893H32.5979C32.7388 25.38 32.8758 25.3393 32.999 25.2704C33.1221 25.2014 33.2284 25.1058 33.3099 24.9906L35.9302 21.3545C36.0512 21.1501 36.0913 20.9078 36.0424 20.6753C35.9935 20.4429 35.8592 20.2372 35.666 20.0989C35.4729 19.9606 35.2349 19.8997 34.9991 19.9283C34.7633 19.9569 34.5467 20.0728 34.3922 20.2533V20.2912Z" fill="white"/>
<path d="M21.4144 24.7153H24.4999C24.7517 24.7153 24.9931 24.6152 25.1712 24.4372C25.3492 24.2592 25.4492 24.0177 25.4492 23.7659C25.4492 23.5141 25.3492 23.2726 25.1712 23.0946C24.9931 22.9166 24.7517 22.8165 24.4999 22.8165H21.4144C21.1627 22.8165 20.9212 22.9166 20.7431 23.0946C20.5651 23.2726 20.4651 23.5141 20.4651 23.7659C20.4651 24.0177 20.5651 24.2592 20.7431 24.4372C20.9212 24.6152 21.1627 24.7153 21.4144 24.7153Z" fill="white"/>
<path d="M21.4144 28.5032H26.0378C26.2896 28.5032 26.5311 28.4032 26.7091 28.2252C26.8872 28.0471 26.9872 27.8056 26.9872 27.5539C26.9872 27.3021 26.8872 27.0606 26.7091 26.8826C26.5311 26.7045 26.2896 26.6045 26.0378 26.6045H21.4144C21.1627 26.6045 20.9212 26.7045 20.7431 26.8826C20.5651 27.0606 20.4651 27.3021 20.4651 27.5539C20.4651 27.8056 20.5651 28.0471 20.7431 28.2252C20.9212 28.4032 21.1627 28.5032 21.4144 28.5032Z" fill="white"/>
<path d="M31.6011 30.3925H21.4144C21.1627 30.3925 20.9212 30.4925 20.7431 30.6705C20.5651 30.8486 20.4651 31.09 20.4651 31.3418C20.4651 31.5936 20.5651 31.8351 20.7431 32.0131C20.9212 32.1912 21.1627 32.2912 21.4144 32.2912H31.6011C31.8529 32.2912 32.0944 32.1912 32.2724 32.0131C32.4504 31.8351 32.5505 31.5936 32.5505 31.3418C32.5505 31.09 32.4504 30.8486 32.2724 30.6705C32.0944 30.4925 31.8529 30.3925 31.6011 30.3925Z" fill="white"/>
<path d="M31.6011 34.1804H21.4144C21.1627 34.1804 20.9212 34.2804 20.7431 34.4585C20.5651 34.6365 20.4651 34.878 20.4651 35.1298C20.4651 35.3816 20.5651 35.623 20.7431 35.8011C20.9212 35.9791 21.1627 36.0791 21.4144 36.0791H31.6011C31.8529 36.0791 32.0944 35.9791 32.2724 35.8011C32.4504 35.623 32.5505 35.3816 32.5505 35.1298C32.5505 34.878 32.4504 34.6365 32.2724 34.4585C32.0944 34.2804 31.8529 34.1804 31.6011 34.1804Z" fill="white"/>
<path d="M33.1392 16.0001C32.2535 15.9947 31.3759 16.1695 30.5599 16.5139C29.7439 16.8583 29.0064 17.365 28.3923 18.0033H17.9494C17.6976 18.0033 17.4561 18.1033 17.2781 18.2813C17.1 18.4594 17 18.7009 17 18.9526V39.0506C17 39.3024 17.1 39.5439 17.2781 39.7219C17.4561 39.9 17.6976 40 17.9494 40H35.0379C35.2897 40 35.5311 39.9 35.7092 39.7219C35.8872 39.5439 35.9872 39.3024 35.9872 39.0506V28.3798C37.2798 27.7064 38.3104 26.6207 38.9156 25.2949C39.5208 23.9691 39.6658 22.4791 39.3278 21.0615C38.9897 19.6438 38.1879 18.3796 37.0495 17.4696C35.9112 16.5595 34.5015 16.0557 33.0442 16.0381L33.1392 16.0001ZM34.1835 38.1013H18.9937V19.902H27.1962C26.7564 20.8949 26.5708 21.9816 26.656 23.0642C26.7412 24.1467 27.0946 25.191 27.6843 26.1029C28.274 27.0147 29.0814 27.7654 30.0337 28.2872C30.986 28.809 32.0533 29.0856 33.1392 29.0918C33.4893 29.0889 33.8386 29.0571 34.1835 28.9969V38.1013ZM35.9872 26.1963C35.1786 26.8424 34.1742 27.1939 33.1392 27.1931C31.9714 27.1893 30.8479 26.7455 29.9927 25.9502C29.1376 25.1548 28.6136 24.0665 28.5253 22.902V22.1805C28.5772 21.4964 28.7805 20.8324 29.1203 20.2364C29.4602 19.6404 29.9281 19.1274 30.4904 18.7343C31.2649 18.187 32.1908 17.8949 33.1392 17.8988C34.3704 17.8988 35.5512 18.388 36.4218 19.2586C37.2924 20.1292 37.7815 21.31 37.7815 22.5412C37.7834 23.2474 37.6225 23.9445 37.3113 24.5783C37.0002 25.2122 36.5471 25.7659 35.9872 26.1963Z" fill="white"/>
<defs>
<filter id="filter0_f_0_282" x="-5.74625" y="-5.74625" width="67.4925" height="67.4925" filterUnits="userSpaceOnUse" color-interpolation-filters="sRGB">
<feFlood flood-opacity="0" result="BackgroundImageFix"/>
<feBlend mode="normal" in="SourceGraphic" in2="BackgroundImageFix" result="shape"/>
<feGaussianBlur stdDeviation="10.8731" result="effect1_foregroundBlur_0_282"/>
</filter>
</defs>
</svg>
