<svg width="56" height="56" viewBox="0 0 56 56" fill="none" xmlns="http://www.w3.org/2000/svg">
<circle cx="28" cy="28" r="28" fill="#2563EB"/>
<mask id="mask0_0_282" style="mask-type:luminance" maskUnits="userSpaceOnUse" x="0" y="0" width="56" height="56">
<circle cx="28" cy="28" r="28" fill="white"/>
</mask>
<g mask="url(#mask0_0_282)">
<g filter="url(#filter0_f_0_282)">
<circle cx="28" cy="28" r="12" fill="#2563EB" fill-opacity="0.8"/>
</g>
</g>
<path d="M16.7357 16.9657L18.6057 17.5157L20.4857 31.0457C20.4999 31.1184 20.5234 31.189 20.5557 31.2557C20.5557 31.2557 20.5557 31.3457 20.5557 31.3857C20.6097 31.4515 20.67 31.5118 20.7357 31.5657C20.7357 31.5657 20.7357 31.6357 20.8057 31.6557C20.8732 31.7083 20.9471 31.752 21.0257 31.7857L21.1057 31.8357C21.221 31.879 21.3427 31.9027 21.4657 31.9057H21.6057L32.2357 30.4757L34.5657 31.9657C34.7375 32.0832 34.8684 32.2513 34.9401 32.4467C35.0118 32.6421 35.0208 32.855 34.9657 33.0557C34.8977 33.2443 34.7745 33.408 34.6122 33.5257C34.45 33.6434 34.2561 33.7096 34.0557 33.7157H21.4757C21.2105 33.7157 20.9562 33.8211 20.7686 34.0086C20.5811 34.1962 20.4757 34.4505 20.4757 34.7157C20.4757 34.9809 20.5811 35.2353 20.7686 35.4228C20.9562 35.6104 21.2105 35.7157 21.4757 35.7157H34.0557C34.6959 35.7216 35.3205 35.5184 35.8347 35.1369C36.3488 34.7554 36.7244 34.2165 36.9043 33.602C37.0842 32.9876 37.0586 32.3313 36.8315 31.7327C36.6043 31.1341 36.188 30.6261 35.6457 30.2857L35.3057 30.0557L36.6157 29.8857C36.8136 29.8602 36.9993 29.7762 37.149 29.6443C37.2987 29.5124 37.4055 29.3388 37.4557 29.1457L39.4557 21.6357C39.4965 21.4847 39.5013 21.3262 39.4696 21.1729C39.438 21.0197 39.3708 20.876 39.2736 20.7535C39.1763 20.6309 39.0516 20.5329 38.9096 20.4673C38.7676 20.4017 38.6121 20.3703 38.4557 20.3757H21.0057L20.4657 16.5757C20.4355 16.3845 20.3504 16.2063 20.2208 16.0625C20.0913 15.9187 19.9227 15.8156 19.7357 15.7657L17.2657 15.0357C17.0098 14.9654 16.7364 14.9997 16.5058 15.131C16.2751 15.2623 16.106 15.4798 16.0357 15.7357C15.9654 15.9917 15.9997 16.265 16.131 16.4957C16.2623 16.7264 16.4798 16.8954 16.7357 16.9657ZM37.2157 22.3957L35.7357 27.9657L22.3257 29.7857L21.3257 22.3857L37.2157 22.3957Z" fill="white"/>
<path d="M26.3557 38.5358C26.3498 38.062 26.2038 37.6006 25.936 37.2096C25.6683 36.8187 25.2908 36.5158 24.8512 36.339C24.4116 36.1623 23.9295 36.1196 23.4657 36.2164C23.0019 36.3131 22.5771 36.5451 22.2448 36.8829C21.9126 37.2207 21.6878 37.6493 21.5987 38.1146C21.5096 38.58 21.5603 39.0613 21.7443 39.4979C21.9284 39.9345 22.2375 40.3069 22.6328 40.5681C23.0281 40.8293 23.4919 40.9677 23.9657 40.9658C24.283 40.9658 24.5971 40.9027 24.8897 40.7801C25.1823 40.6575 25.4475 40.4778 25.67 40.2517C25.8925 40.0255 26.0677 39.7573 26.1854 39.4627C26.3031 39.1681 26.361 38.853 26.3557 38.5358ZM23.5657 38.5358C23.5807 38.4418 23.6287 38.3562 23.7011 38.2945C23.7735 38.2327 23.8656 38.1988 23.9607 38.1988C24.0559 38.1988 24.1479 38.2327 24.2203 38.2945C24.2927 38.3562 24.3407 38.4418 24.3557 38.5358C24.3648 38.5929 24.3615 38.6513 24.3458 38.707C24.3301 38.7627 24.3026 38.8144 24.265 38.8584C24.2275 38.9024 24.1808 38.9378 24.1283 38.962C24.0758 38.9862 24.0186 38.9988 23.9607 38.9988C23.9029 38.9988 23.8457 38.9862 23.7931 38.962C23.7406 38.9378 23.694 38.9024 23.6564 38.8584C23.6189 38.8144 23.5913 38.7627 23.5756 38.707C23.56 38.6513 23.5566 38.5929 23.5657 38.5358Z" fill="white"/>
<path d="M34.7859 38.5358C34.78 38.062 34.6339 37.6006 34.3662 37.2096C34.0985 36.8187 33.721 36.5158 33.2814 36.339C32.8418 36.1623 32.3597 36.1196 31.8959 36.2164C31.4321 36.3131 31.0073 36.5451 30.675 36.8829C30.3428 37.2207 30.1179 37.6493 30.0289 38.1146C29.9398 38.58 29.9905 39.0613 30.1745 39.4979C30.3585 39.9345 30.6677 40.3069 31.063 40.5681C31.4583 40.8293 31.9221 40.9677 32.3959 40.9658C32.7132 40.9658 33.0272 40.9027 33.3198 40.7801C33.6125 40.6575 33.8777 40.4778 34.1002 40.2517C34.3226 40.0255 34.4979 39.7573 34.6156 39.4627C34.7333 39.1681 34.7912 38.853 34.7859 38.5358ZM31.9959 38.5358C31.9959 38.4837 32.0063 38.4321 32.0265 38.3842C32.0467 38.3362 32.0764 38.2927 32.1136 38.2564C32.1509 38.22 32.1951 38.1915 32.2436 38.1725C32.2921 38.1535 32.3438 38.1444 32.3959 38.1458C32.4475 38.1444 32.4988 38.1535 32.5468 38.1726C32.5947 38.1917 32.6382 38.2204 32.6747 38.2569C32.7112 38.2934 32.7399 38.337 32.759 38.3849C32.7781 38.4328 32.7873 38.4842 32.7859 38.5358C32.7872 38.5878 32.7781 38.6396 32.7591 38.6881C32.7401 38.7365 32.7116 38.7807 32.6753 38.818C32.6389 38.8553 32.5955 38.8849 32.5475 38.9051C32.4995 38.9254 32.448 38.9358 32.3959 38.9358C32.2898 38.9358 32.1881 38.8936 32.1131 38.8186C32.038 38.7436 31.9959 38.6418 31.9959 38.5358Z" fill="white"/>
<defs>
<filter id="filter0_f_0_282" x="-5.74625" y="-5.74625" width="67.4925" height="67.4925" filterUnits="userSpaceOnUse" color-interpolation-filters="sRGB">
<feFlood flood-opacity="0" result="BackgroundImageFix"/>
<feBlend mode="normal" in="SourceGraphic" in2="BackgroundImageFix" result="shape"/>
<feGaussianBlur stdDeviation="10.8731" result="effect1_foregroundBlur_0_282"/>
</filter>
</defs>
</svg>
