<svg width="56" height="56" viewBox="0 0 56 56" fill="none" xmlns="http://www.w3.org/2000/svg">
<circle cx="28" cy="28" r="28" fill="#2563EB"/>
<mask id="mask0_0_282" style="mask-type:luminance" maskUnits="userSpaceOnUse" x="0" y="0" width="56" height="56">
<circle cx="28" cy="28" r="28" fill="white"/>
</mask>
<g mask="url(#mask0_0_282)">
<g filter="url(#filter0_f_0_282)">
<circle cx="28" cy="28" r="12" fill="#2563EB" fill-opacity="0.8"/>
</g>
</g>
<path d="M38.8775 26.3389C39.7577 25.4857 40.2629 24.3178 40.282 23.0921C40.3011 21.8665 39.8325 20.6834 38.9794 19.8032C38.1262 18.923 36.9583 18.4178 35.7326 18.3987C34.507 18.3796 33.3239 18.8482 32.4437 19.7013C32.2271 18.6556 31.6566 17.7165 30.8285 17.0423C30.0003 16.3681 28.965 16 27.8971 16C26.8292 16 25.794 16.3681 24.9658 17.0423C24.1376 17.7165 23.5672 18.6556 23.3506 19.7013C22.4704 18.8482 21.2873 18.3796 20.0616 18.3987C18.836 18.4178 17.6681 18.923 16.8149 19.8032C15.9617 20.6834 15.4931 21.8665 15.5122 23.0921C15.5313 24.3178 16.0366 25.4857 16.9168 26.3389C16.0197 26.8951 15.2804 27.6722 14.7697 28.596C14.259 29.5197 13.994 30.5591 14.0001 31.6146V38.3058C14.0001 38.5902 14.1131 38.8629 14.3142 39.064C14.5153 39.2651 14.788 39.3781 15.0724 39.3781H20.1551C20.4395 39.3781 20.7122 39.2651 20.9133 39.064C21.1144 38.8629 21.2274 38.5902 21.2274 38.3058C21.2274 38.0214 21.1144 37.7486 20.9133 37.5475C20.7122 37.3464 20.4395 37.2335 20.1551 37.2335H16.1447V31.6253C16.1466 30.8649 16.3629 30.1205 16.7688 29.4775C17.1747 28.8345 17.7538 28.319 18.4394 27.9902L19.1257 27.6578C19.5502 27.7848 19.9908 27.8498 20.4339 27.8508C21.2791 27.8471 22.1067 27.6096 22.8251 27.1645C22.6116 27.8096 22.4854 28.4804 22.4498 29.159V38.9277C22.4498 39.2121 22.5628 39.4848 22.7639 39.6859C22.965 39.887 23.2377 40 23.5221 40C23.8065 40 24.0793 39.887 24.2804 39.6859C24.4815 39.4848 24.5944 39.2121 24.5944 38.9277V29.1698C24.6434 28.365 24.8733 27.5817 25.2668 26.8781C25.6604 26.1744 26.2076 25.5686 26.8677 25.1057C27.5715 25.2841 28.3086 25.2841 29.0123 25.1057C29.673 25.5664 30.2215 26.17 30.6169 26.8717C31.0123 27.5734 31.2445 28.3552 31.2963 29.159V38.9277C31.2963 39.2121 31.4093 39.4848 31.6104 39.6859C31.8115 39.887 32.0842 40 32.3686 40C32.653 40 32.9258 39.887 33.1269 39.6859C33.328 39.4848 33.4409 39.2121 33.4409 38.9277V29.1376C33.4043 28.467 33.2818 27.8039 33.0763 27.1645C33.7901 27.6114 34.6148 27.8491 35.4569 27.8508C35.8897 27.8433 36.3193 27.7747 36.7329 27.6471L37.4192 27.9795C38.1105 28.306 38.695 28.8218 39.105 29.4671C39.515 30.1125 39.7335 30.8608 39.7353 31.6253V37.2335H35.8858C35.6014 37.2335 35.3286 37.3464 35.1275 37.5475C34.9265 37.7486 34.8135 38.0214 34.8135 38.3058C34.8135 38.5902 34.9265 38.8629 35.1275 39.064C35.3286 39.2651 35.6014 39.3781 35.8858 39.3781H40.8076C41.092 39.3781 41.3648 39.2651 41.5659 39.064C41.767 38.8629 41.8799 38.5902 41.8799 38.3058V31.6146C41.8771 30.5509 41.5991 29.5061 41.0729 28.5817C40.5468 27.6572 39.7905 26.8846 38.8775 26.3389ZM20.4339 25.7062C19.9398 25.7062 19.4567 25.5597 19.0458 25.2852C18.635 25.0106 18.3147 24.6204 18.1256 24.1639C17.9365 23.7073 17.8871 23.205 17.9835 22.7203C18.0799 22.2357 18.3178 21.7905 18.6672 21.4411C19.0166 21.0917 19.4618 20.8537 19.9465 20.7573C20.4311 20.6609 20.9335 20.7104 21.39 20.8995C21.8466 21.0886 22.2368 21.4088 22.5113 21.8197C22.7858 22.2306 22.9324 22.7136 22.9324 23.2078C22.9324 23.8704 22.6691 24.5059 22.2006 24.9744C21.732 25.443 21.0965 25.7062 20.4339 25.7062ZM25.4845 20.6128C25.4845 20.1194 25.6312 19.6372 25.9061 19.2274C26.1809 18.8176 26.5713 18.4988 27.0278 18.3115C27.4842 18.1242 27.986 18.0768 28.4695 18.1755C28.9529 18.2741 29.3961 18.5142 29.7427 18.8654C30.0893 19.2165 30.3237 19.6628 30.416 20.1475C30.5083 20.6321 30.4544 21.1333 30.2612 21.5873C30.068 22.0413 29.7441 22.4275 29.3308 22.697C28.9175 22.9664 28.4334 23.1069 27.94 23.1005C27.2802 23.1005 26.6475 22.8384 26.1809 22.3719C25.7144 21.9053 25.4523 21.2726 25.4523 20.6128H25.4845ZM32.9906 23.2078C32.9906 22.7118 33.1383 22.2271 33.4148 21.8153C33.6913 21.4036 34.084 21.0834 34.5431 20.8957C35.0021 20.7079 35.5067 20.661 35.9924 20.7609C36.4782 20.8608 36.9233 21.1031 37.2709 21.4568C37.6186 21.8105 37.8531 22.2597 37.9446 22.7472C38.0361 23.2346 37.9805 23.7383 37.7848 24.194C37.5891 24.6497 37.2622 25.0369 36.8457 25.3062C36.4292 25.5755 35.942 25.7147 35.4461 25.7062C34.7891 25.6978 34.1618 25.4308 33.7002 24.9632C33.2386 24.4955 32.9798 23.8649 32.9798 23.2078H32.9906Z" fill="white"/>
<defs>
<filter id="filter0_f_0_282" x="-5.74625" y="-5.74625" width="67.4925" height="67.4925" filterUnits="userSpaceOnUse" color-interpolation-filters="sRGB">
<feFlood flood-opacity="0" result="BackgroundImageFix"/>
<feBlend mode="normal" in="SourceGraphic" in2="BackgroundImageFix" result="shape"/>
<feGaussianBlur stdDeviation="10.8731" result="effect1_foregroundBlur_0_282"/>
</filter>
</defs>
</svg>
