<svg width="56" height="56" viewBox="0 0 56 56" fill="none" xmlns="http://www.w3.org/2000/svg">
<circle cx="28" cy="28" r="28" fill="#2563EB"/>
<mask id="mask0_0_282" style="mask-type:luminance" maskUnits="userSpaceOnUse" x="0" y="0" width="56" height="56">
<circle cx="28" cy="28" r="28" fill="white"/>
</mask>
<g mask="url(#mask0_0_282)">
<g filter="url(#filter0_f_0_282)">
<circle cx="28" cy="28" r="12" fill="#2563EB" fill-opacity="0.8"/>
</g>
</g>
<path d="M28 40C25.9517 40.005 23.9367 39.4823 22.1492 38.4821L16 39.987L17.933 34.4994C16.4882 32.257 15.8317 29.5972 16.0674 26.9401C16.303 24.2829 17.4172 21.7801 19.2341 19.8269C21.0509 17.8738 23.4667 16.5816 26.0999 16.1547C28.733 15.7278 31.4334 16.1904 33.7743 17.4694C36.1152 18.7485 37.9631 20.771 39.0262 23.2176C40.0894 25.6641 40.307 28.3951 39.6447 30.9792C38.9825 33.5632 37.4781 35.8529 35.3693 37.4865C33.2605 39.1201 30.6675 40.0045 28 40ZM22.4605 36.3935L22.7978 36.6011C24.3607 37.5541 26.1565 38.0569 27.987 38.054C29.9735 38.0566 31.9161 37.4699 33.5691 36.3681C35.222 35.2663 36.511 33.699 37.273 31.8645C38.035 30.03 38.2357 28.0106 37.8497 26.062C37.4637 24.1134 36.5084 22.323 35.1047 20.9174C33.7009 19.5119 31.9118 18.5543 29.9637 18.1658C28.0155 17.7773 25.996 17.9754 24.1604 18.735C22.3249 19.4946 20.7559 20.7816 19.652 22.4331C18.5481 24.0846 17.9589 26.0265 17.9589 28.013C17.9481 30.1015 18.5974 32.1402 19.814 33.8378L20.0995 34.24L19.0486 37.2367L22.4605 36.3935Z" fill="white"/>
<path d="M26.145 25.7427C26.1633 25.7065 26.1728 25.6665 26.1728 25.6259C26.1728 25.5854 26.1633 25.5454 26.145 25.5092C25.8192 24.5167 25.4203 23.5497 24.9515 22.6162C24.6457 22.5445 24.3303 22.5226 24.0175 22.5513C23.7148 22.5755 23.426 22.6883 23.1872 22.8757C22.6648 23.3258 22.3008 23.9319 22.149 24.6046C21.9972 25.2773 22.0655 25.981 22.3439 26.6119C23.3299 29.4011 26.9623 32.9427 30.4261 33.4356C30.8302 33.5321 31.251 33.5354 31.6565 33.4451C32.0621 33.3549 32.4418 33.1735 32.7668 32.9147C33.0919 32.6559 33.3537 32.3265 33.5326 31.9515C33.7114 31.5765 33.8025 31.1657 33.7991 30.7502C33.801 30.7064 33.7912 30.6629 33.7707 30.6241C33.7501 30.5853 33.7196 30.5528 33.6823 30.5297C32.814 29.9927 31.8869 29.5574 30.9191 29.2324C30.8886 29.2112 30.8524 29.1998 30.8153 29.1998C30.7782 29.1998 30.742 29.2112 30.7115 29.2324C30.5039 29.453 29.985 30.0757 29.505 30.6984C29.4853 30.7097 29.4629 30.7157 29.4402 30.7157C29.4174 30.7157 29.395 30.7097 29.3753 30.6984C28.4353 30.4141 27.5647 29.9374 26.8188 29.2987C26.0729 28.66 25.4679 27.8731 25.0423 26.9881C25.0298 26.9664 25.0232 26.9418 25.0232 26.9167C25.0232 26.8917 25.0298 26.8671 25.0423 26.8454C25.2369 26.8194 25.691 26.2357 26.145 25.7427Z" fill="white"/>
<defs>
<filter id="filter0_f_0_282" x="-5.74625" y="-5.74625" width="67.4925" height="67.4925" filterUnits="userSpaceOnUse" color-interpolation-filters="sRGB">
<feFlood flood-opacity="0" result="BackgroundImageFix"/>
<feBlend mode="normal" in="SourceGraphic" in2="BackgroundImageFix" result="shape"/>
<feGaussianBlur stdDeviation="10.8731" result="effect1_foregroundBlur_0_282"/>
</filter>
</defs>
</svg>
