<?xml version="1.0" encoding="UTF-8"?>
<!DOCTYPE svg PUBLIC "-//W3C//DTD SVG 1.1//EN" "http://www.w3.org/Graphics/SVG/1.1/DTD/svg11.dtd">
<!-- Creator: CorelDRAW 2020 (64-Bit) -->
<svg xmlns="http://www.w3.org/2000/svg" xml:space="preserve" width="8.26772in" height="11.6929in" version="1.1" style="shape-rendering:geometricPrecision; text-rendering:geometricPrecision; image-rendering:optimizeQuality; fill-rule:evenodd; clip-rule:evenodd"
viewBox="0 0 8267.72 11692.91"
 xmlns:xlink="http://www.w3.org/1999/xlink"
 xmlns:xodm="http://www.corel.com/coreldraw/odm/2003">
 <defs>
  <style type="text/css">
   <![CDATA[
    .fil0 {fill:url(#id0)}
   ]]>
  </style>
  <linearGradient id="id0" gradientUnits="userSpaceOnUse" x1="3515.53" y1="4647.7" x2="4778.16" y2="4916.81">
   <stop offset="0" style="stop-opacity:1; stop-color:#0096FE"/>
   <stop offset="1" style="stop-opacity:1; stop-color:#DC4C94"/>
  </linearGradient>
 </defs>
 <g id="Layer_x0020_1">
  <metadata id="CorelCorpID_0Corel-Layer"/>
  <path class="fil0" d="M3029.59 4565.9l1110.66 0 340.91 0c13.17,-23.29 38.17,-39.02 66.83,-39.02 42.37,0 76.72,34.35 76.72,76.72 0,42.37 -34.35,76.72 -76.72,76.72 -25.96,0 -48.91,-12.9 -62.79,-32.63l-363.38 0c-80.57,0 -146.05,29.83 -191.54,91.93 -31.06,42.4 -44.55,84.83 -44.55,123.51l0 324.96 855.46 0c55.07,0 107.91,-14.78 157.72,-44.54 78.78,-54.47 118.05,-127.56 118.05,-218.89 0,-78.35 -11.94,-130.38 -67.02,-189.72 19.04,-39.89 28.35,-80.18 28.35,-121.69 0,-71.67 -11.74,-122.69 -64.58,-186.27 -59.93,-59.93 -129.38,-89.49 -208.15,-89.49l-135.33 0 -684.48 0 -868.49 0c-60.54,0 -119.59,17.61 -172.71,59.33 -66.81,52.46 -97.8,120.87 -97.8,198.63l0 26.11c0,24.3 4.66,52.24 14.78,83.63 24.31,62.36 64.8,107.51 121.69,136.47 35.02,24.29 98.4,36.24 190.33,36.24l413.25 0c13.63,-21.31 37.51,-35.44 64.68,-35.44 42.37,0 76.72,34.35 76.72,76.72 0,42.37 -34.35,76.72 -76.72,76.72 -27.49,0 -51.61,-14.46 -65.16,-36.2l-481.62 0c-42.11,0 -71.69,4.25 -88.89,12.54 -20.85,3.44 -46.98,20.06 -78.35,49.21 -40.29,37.25 -59.93,91.92 -59.93,164.2l0 2.43 793.7 0c30.98,0 65.2,-6.48 103.27,-19.64 29.15,-8.3 62.36,-30.78 100.22,-67.63 44.54,-51.63 67.01,-108.52 67.01,-170.69l0 -26.11c0,-30.38 -7.09,-64.8 -21.87,-103.27 -26.72,-54.05 -66.41,-93.74 -119.25,-120.47 -36.24,-21.87 -98,-32.6 -185.07,-32.6l-485.94 0c-18.83,0 -28.34,-14.16 -28.34,-42.11 0,-26.11 11.74,-39.69 28.34,-39.69zm1108.24 310.8l498.19 0c13.49,-21.97 37.75,-36.62 65.42,-36.62 42.37,0 76.72,34.35 76.72,76.72 0,42.37 -34.35,76.72 -76.72,76.72 -26.47,0 -49.82,-13.42 -63.61,-33.81l-500 0 0 -83.02z"/>
 </g>
</svg>
